# xmcd
#
# Track frame offsets:
#	150
#	13436
#	27964
#	40979
#	56115
#	69949
#	82115
#	98752
#	112210
#	125871
#	138887
#	152866
#	169487
#	176984
#	188637
#	207241
#	221279
#	232036
#	248332
#	264334
#
# Disc length: 3689 seconds
#
# Revision: 1
# Processed by: cddbd v1.5.1PL0 Copyright (c) Steve Scherf et al.
# Submitted via: EasyCDDAExtractor 7.1.0.1
#
DISCID=280e6714
DTITLE=Georg Ots - Musiikin tähtihetkiä 18, CD2
DYEAR=2001
DGENRE=
TTITLE0=Katselen yli virran
TTITLE1=Muistojen kultaiset ruusut
TTITLE2=Ilta Volgalla
TTITLE3=Rakastan sinua, elämä
TTITLE4=Kun päättyy työ
TTITLE5=Uudelleen jos luokses tulla voisin
TTITLE6=Syysunelmia
TTITLE7=Kyllikki
TTITLE8=Älä kiiruhda
TTITLE9=Mustanmeren valssi
TTITLE10=Kauniit muistot
TTITLE11=Muuttuvat laulut
TTITLE12=Äidin silmät
TTITLE13=Kehtolaulu
TTITLE14=Tuomen tarina
TTITLE15=Kirje Karjalaan
TTITLE16=Tuntematon hauta
TTITLE17=Leningrad
TTITLE18=Laulu virran rannalla
TTITLE19=Valssi kanssasi
EXTD=
EXTT0=
EXTT1=
EXTT2=
EXTT3=
EXTT4=
EXTT5=
EXTT6=
EXTT7=
EXTT8=
EXTT9=
EXTT10=
EXTT11=
EXTT12=
EXTT13=
EXTT14=
EXTT15=
EXTT16=
EXTT17=
EXTT18=
EXTT19=
PLAYORDER=
